<svg xmlns="http://www.w3.org/2000/svg" xmlns:xlink="http://www.w3.org/1999/xlink" viewBox="0 0 332 281.72"><defs><style>.cls-1{isolation:isolate;}.cls-2{fill:url(#linear-gradient);}.cls-3{fill:url(#linear-gradient-2);}.cls-4{fill:url(#linear-gradient-3);}.cls-5{font-size:35.44px;font-family:CutoffPro-Regular, CutoffPro Regular;}.cls-10,.cls-5{fill:#fff;}.cls-6{letter-spacing:-0.01em;}.cls-7{letter-spacing:-0.01em;}.cls-8{letter-spacing:-0.04em;}.cls-9{letter-spacing:0.02em;}.cls-10{font-size:16.5px;font-family:SegoePrint, Segoe Print;letter-spacing:0.18em;}.cls-11{letter-spacing:0.21em;}.cls-12{opacity:0.6;mix-blend-mode:soft-light;}</style><linearGradient id="linear-gradient" x1="248.73" y1="77.36" x2="248.73" y2="373.81" gradientTransform="matrix(-1, 0, 0, 1, 451.92, -80.48)" gradientUnits="userSpaceOnUse"><stop offset="0" stop-color="#2b388f"/><stop offset="0.1" stop-color="#343c8a"/><stop offset="0.25" stop-color="#4c477c"/><stop offset="0.45" stop-color="#745866"/><stop offset="0.69" stop-color="#ab7148"/><stop offset="0.95" stop-color="#f19021"/><stop offset="0.96" stop-color="#f6921e"/><stop offset="1" stop-color="#fcee21"/></linearGradient><linearGradient id="linear-gradient-2" x1="248.48" y1="0.54" x2="248.48" y2="308" gradientUnits="userSpaceOnUse"><stop offset="0" stop-color="#2b388f"/><stop offset="0.13" stop-color="#3d4085"/><stop offset="0.38" stop-color="#6e566a"/><stop offset="0.74" stop-color="#ba773f"/><stop offset="1" stop-color="#f6921e"/></linearGradient><linearGradient id="linear-gradient-3" x1="258.54" y1="80.48" x2="258.54" y2="362.19" xlink:href="#linear-gradient-2"/></defs><g class="cls-1"><g id="Layer_1" data-name="Layer 1"><rect class="cls-2" x="164.97" y="182.29" width="76.46" height="99.43"/><polygon class="cls-3" points="332 0 241.43 0 165.55 0 164.97 0 164.97 89.07 241.43 89.07 241.43 63.72 332 63.72 332 0"/><path class="cls-4" d="M368.88,247.58l53.14,0V232.35c0-26.14-20.74-47.35-46.28-47.35H336.82a1.88,1.88,0,0,0-.33,0c-.4,0-.83,0-1.21,0H171.56V80.48H95.06V362.19h76.5V247.35H260Z" transform="translate(-95.06 -80.48)"/><text class="cls-5" transform="translate(73.16 137.19) scale(0.89 1)">Hom<tspan class="cls-6" x="72.11" y="0">a</tspan><tspan class="cls-7" x="88.91" y="0">y</tspan><tspan x="105.24" y="0">oun </tspan><tspan class="cls-8" x="171.4" y="0">F</tspan><tspan x="187.07" y="0">a</tspan><tspan class="cls-9" x="204.15" y="0">k</tspan><tspan x="221.37" y="0">har</tspan></text><text class="cls-10" transform="translate(75.99 156.41) scale(0.89 1)">P<tspan class="cls-11" x="14.62" y="0">rogrammer</tspan></text><polygon class="cls-12" points="0.2 166.88 76.71 166.88 0.2 236.42 0.2 166.88"/></g></g></svg>